<svg width="46" height="96" viewBox="0 0 46 96" fill="none" xmlns="http://www.w3.org/2000/svg">
<path d="M19.4852 95.614C19.7598 95.6428 20.0058 95.4436 20.0347 95.1689L20.5047 90.6935C20.5335 90.4189 20.3343 90.1729 20.0597 90.1441C19.785 90.1152 19.539 90.3145 19.5102 90.5891L19.0924 94.5672L15.1142 94.1494C14.8396 94.1206 14.5936 94.3198 14.5648 94.5945C14.5359 94.8691 14.7352 95.1151 15.0098 95.1439L19.4852 95.614ZM45.6442 0.0271494C32.1677 4.65901 14.6235 14.9823 5.90412 30.9416C1.53719 38.9344 -0.611096 48.334 1.074 59.111C2.75799 69.881 8.26474 81.9928 19.1489 95.4314L19.926 94.802C9.1202 81.4602 3.71175 69.5075 2.06199 58.9565C0.413333 48.4125 2.51273 39.2345 6.78168 31.421C15.334 15.7676 32.6144 5.56292 45.9692 0.972851L45.6442 0.0271494Z" fill="black"/>
</svg>
