<svg width="23" height="23" viewBox="0 0 23 23" fill="none" xmlns="http://www.w3.org/2000/svg">
<path d="M18.4618 8.05924C18.1584 8.36073 17.748 8.52994 17.3202 8.52994C16.8925 8.52994 16.4821 8.36073 16.1787 8.05924L14.8381 6.71863C14.5363 6.41524 14.3669 6.00473 14.3669 5.57683C14.3669 5.14892 14.5363 4.73841 14.8381 4.43502L17.8725 1.39911C17.8785 1.39333 17.883 1.38616 17.8855 1.37823C17.8881 1.3703 17.8886 1.36186 17.8871 1.35367C17.8856 1.34548 17.8821 1.33778 17.8769 1.33127C17.8717 1.32476 17.865 1.31964 17.8573 1.31636C15.8987 0.476781 13.3592 0.904644 11.7467 2.5056C10.2038 4.03692 10.116 6.34022 10.6811 8.35037C10.7614 8.63609 10.7612 8.93844 10.6805 9.22406C10.5998 9.50968 10.4418 9.76747 10.2239 9.96898L1.81804 17.6458C1.57004 17.8657 1.36963 18.134 1.22914 18.4342C1.08864 18.7344 1.01104 19.0601 1.00109 19.3914C0.991149 19.7227 1.04907 20.0526 1.1713 20.3607C1.29353 20.6687 1.47749 20.9486 1.71186 21.1829C1.94623 21.4173 2.22606 21.6013 2.53415 21.7235C2.84224 21.8457 3.17207 21.9037 3.50337 21.8937C3.83467 21.8838 4.16043 21.8062 4.46064 21.6657C4.76084 21.5252 5.02913 21.3248 5.24902 21.0768L13.0121 12.6507C13.2111 12.4365 13.4646 12.2804 13.7454 12.1993C14.0263 12.1181 14.324 12.1149 14.6065 12.19C16.6015 12.7244 18.872 12.6239 20.3948 11.1209C22.0341 9.5063 22.3878 6.65254 21.5931 5.01929C21.5895 5.01215 21.5843 5.00597 21.5778 5.00124C21.5714 4.99652 21.5639 4.99338 21.5561 4.9921C21.5482 4.99082 21.5401 4.99143 21.5325 4.99388C21.5249 4.99632 21.518 5.00054 21.5123 5.00617L18.4618 8.05924Z" stroke="#161616" stroke-miterlimit="10" stroke-linecap="round"/>
</svg>
