<svg width="24" height="24" viewBox="0 0 24 24" fill="none" xmlns="http://www.w3.org/2000/svg">
<path d="M9.17613 17.7384H14.8227M12 0.821777V2.03011M19.6898 4.00694L18.8355 4.86124M22.875 11.6968H21.6667M2.33333 11.6968H1.125M5.16446 4.86124L4.31017 4.00694M7.72733 15.9694C6.88255 15.1244 6.3073 14.0479 6.07431 12.876C5.84132 11.7041 5.96105 10.4894 6.41838 9.38549C6.87571 8.28161 7.65008 7.33813 8.6436 6.67433C9.63711 6.01053 10.8051 5.65624 12 5.65624C13.1949 5.65624 14.3629 6.01053 15.3564 6.67433C16.3499 7.33813 17.1243 8.28161 17.5816 9.38549C18.0389 10.4894 18.1587 11.7041 17.9257 12.876C17.6927 14.0479 17.1175 15.1244 16.2727 15.9694L15.6105 16.6304C15.2319 17.009 14.9317 17.4585 14.7268 17.9532C14.522 18.4479 14.4166 18.9781 14.4167 19.5135V20.1551C14.4167 20.7961 14.1621 21.4107 13.7088 21.864C13.2556 22.3172 12.6409 22.5718 12 22.5718C11.3591 22.5718 10.7444 22.3172 10.2912 21.864C9.83795 21.4107 9.58333 20.7961 9.58333 20.1551V19.5135C9.58333 18.432 9.15317 17.3941 8.3895 16.6304L7.72733 15.9694Z" stroke="#161616" stroke-linecap="round" stroke-linejoin="round"/>
</svg>
