<svg width="14" height="11" viewBox="0 0 14 11" fill="none" xmlns="http://www.w3.org/2000/svg">
<path fill-rule="evenodd" clip-rule="evenodd" d="M13.7025 0.66388C13.89 0.851408 13.9953 1.10572 13.9953 1.37088C13.9953 1.63604 13.89 1.89035 13.7025 2.07788L5.70252 10.0779C5.515 10.2654 5.26069 10.3707 4.99552 10.3707C4.73036 10.3707 4.47605 10.2654 4.28852 10.0779L0.288524 6.07788C0.106366 5.88928 0.00557188 5.63668 0.0078503 5.37448C0.0101287 5.11228 0.115298 4.86147 0.300706 4.67606C0.486114 4.49065 0.736926 4.38548 0.999123 4.38321C1.26132 4.38093 1.51392 4.48172 1.70252 4.66388L4.99552 7.95688L12.2885 0.66388C12.4761 0.476409 12.7304 0.371094 12.9955 0.371094C13.2607 0.371094 13.515 0.476409 13.7025 0.66388Z" fill="#1A8CCC"/>
</svg>
