<svg width="16" height="17" viewBox="0 0 16 17" fill="none" xmlns="http://www.w3.org/2000/svg">
<path fill-rule="evenodd" clip-rule="evenodd" d="M4.23423 6.09067C4.38425 5.94069 4.5877 5.85644 4.79983 5.85644C5.01196 5.85644 5.21541 5.94069 5.36543 6.09067L7.99983 8.72507L10.6342 6.09067C10.708 6.01426 10.7963 5.95331 10.8939 5.91139C10.9915 5.86946 11.0965 5.84739 11.2027 5.84647C11.3089 5.84554 11.4143 5.86578 11.5126 5.90601C11.6109 5.94623 11.7002 6.00564 11.7753 6.08075C11.8505 6.15586 11.9099 6.24519 11.9501 6.3435C11.9903 6.44182 12.0106 6.54716 12.0096 6.65339C12.0087 6.75961 11.9866 6.86459 11.9447 6.96219C11.9028 7.05979 11.8418 7.14807 11.7654 7.22187L8.56543 10.4219C8.41541 10.5718 8.21196 10.6561 7.99983 10.6561C7.7877 10.6561 7.58425 10.5718 7.43423 10.4219L4.23423 7.22187C4.08425 7.07184 4 6.8684 4 6.65627C4 6.44413 4.08425 6.24069 4.23423 6.09067Z" fill="black"/>
</svg>
