<svg width="34" height="34" viewBox="0 0 34 34" fill="none" xmlns="http://www.w3.org/2000/svg">
<path fill-rule="evenodd" clip-rule="evenodd" d="M10.5666 0.736695C12.3261 0.655695 12.8871 0.637695 17.3691 0.637695C21.8511 0.637695 22.4121 0.657195 24.1701 0.736695C25.9281 0.816195 27.1281 1.0967 28.1781 1.5032C29.2776 1.9187 30.2751 2.5682 31.1001 3.4082C31.9401 4.2317 32.5881 5.2277 33.0021 6.3287C33.4101 7.3787 33.6891 8.5787 33.7701 10.3337C33.8511 12.0962 33.8691 12.6572 33.8691 17.1377C33.8691 21.6197 33.8496 22.1807 33.7701 23.9402C33.6906 25.6952 33.4101 26.8952 33.0021 27.9452C32.5881 29.0463 31.9391 30.044 31.1001 30.8687C30.2751 31.7087 29.2776 32.3567 28.1781 32.7707C27.1281 33.1787 25.9281 33.4577 24.1731 33.5387C22.4121 33.6197 21.8511 33.6377 17.3691 33.6377C12.8871 33.6377 12.3261 33.6182 10.5666 33.5387C8.81164 33.4592 7.61164 33.1787 6.56164 32.7707C5.46052 32.3566 4.46287 31.7076 3.63814 30.8687C2.79871 30.0447 2.14911 29.0475 1.73464 27.9467C1.32814 26.8967 1.04914 25.6967 0.968141 23.9417C0.887141 22.1792 0.869141 21.6182 0.869141 17.1377C0.869141 12.6557 0.888641 12.0947 0.968141 10.3367C1.04764 8.5787 1.32814 7.3787 1.73464 6.3287C2.14972 5.22782 2.79982 4.23067 3.63964 3.4067C4.4632 2.56745 5.45985 1.91786 6.56014 1.5032C7.61014 1.0967 8.81014 0.817695 10.5651 0.736695H10.5666ZM24.0366 3.7067C22.2966 3.6272 21.7746 3.6107 17.3691 3.6107C12.9636 3.6107 12.4416 3.6272 10.7016 3.7067C9.09214 3.7802 8.21914 4.0487 7.63714 4.2752C6.86764 4.5752 6.31714 4.9307 5.73964 5.5082C5.19221 6.04077 4.77091 6.68912 4.50664 7.4057C4.28014 7.9877 4.01164 8.8607 3.93814 10.4702C3.85864 12.2102 3.84214 12.7322 3.84214 17.1377C3.84214 21.5432 3.85864 22.0652 3.93814 23.8052C4.01164 25.4147 4.28014 26.2877 4.50664 26.8697C4.77064 27.5852 5.19214 28.2347 5.73964 28.7672C6.27214 29.3147 6.92164 29.7362 7.63714 30.0002C8.21914 30.2267 9.09214 30.4952 10.7016 30.5687C12.4416 30.6482 12.9621 30.6647 17.3691 30.6647C21.7761 30.6647 22.2966 30.6482 24.0366 30.5687C25.6461 30.4952 26.5191 30.2267 27.1011 30.0002C27.8706 29.7002 28.4211 29.3447 28.9986 28.7672C29.5461 28.2347 29.9676 27.5852 30.2316 26.8697C30.4581 26.2877 30.7266 25.4147 30.8001 23.8052C30.8796 22.0652 30.8961 21.5432 30.8961 17.1377C30.8961 12.7322 30.8796 12.2102 30.8001 10.4702C30.7266 8.8607 30.4581 7.9877 30.2316 7.4057C29.9316 6.6362 29.5761 6.0857 28.9986 5.5082C28.466 4.9608 27.8177 4.53951 27.1011 4.2752C26.5191 4.0487 25.6461 3.7802 24.0366 3.7067V3.7067ZM15.2616 22.2242C16.4386 22.7141 17.7492 22.7803 18.9695 22.4113C20.1899 22.0423 21.2442 21.2611 21.9526 20.2011C22.6609 19.141 22.9792 17.868 22.8532 16.5994C22.7272 15.3307 22.1646 14.1452 21.2616 13.2452C20.686 12.6699 19.99 12.2294 19.2236 11.9554C18.4573 11.6814 17.6398 11.5807 16.8299 11.6606C16.02 11.7405 15.2379 11.999 14.5398 12.4174C13.8418 12.8358 13.2453 13.4038 12.7931 14.0805C12.3409 14.7571 12.0444 15.5256 11.9249 16.3306C11.8054 17.1356 11.8659 17.9571 12.102 18.736C12.338 19.5148 12.7439 20.2316 13.2902 20.8348C13.8366 21.4379 14.5099 21.9125 15.2616 22.2242ZM11.3721 11.1407C12.1597 10.3532 13.0946 9.72845 14.1236 9.30224C15.1526 8.87603 16.2554 8.65666 17.3691 8.65666C18.4829 8.65666 19.5857 8.87602 20.6147 9.30224C21.6437 9.72845 22.5786 10.3532 23.3661 11.1407C24.1537 11.9282 24.7784 12.8632 25.2046 13.8921C25.6308 14.9211 25.8502 16.0239 25.8502 17.1377C25.8502 18.2514 25.6308 19.3543 25.2046 20.3832C24.7784 21.4122 24.1537 22.3472 23.3661 23.1347C21.7756 24.7252 19.6185 25.6187 17.3691 25.6187C15.1198 25.6187 12.9626 24.7252 11.3721 23.1347C9.78164 21.5442 8.8881 19.387 8.8881 17.1377C8.8881 14.8884 9.78164 12.7312 11.3721 11.1407V11.1407ZM27.7311 9.9197C27.9263 9.7356 28.0825 9.51422 28.1906 9.26866C28.2987 9.0231 28.3564 8.75835 28.3603 8.49009C28.3642 8.22183 28.3142 7.95552 28.2134 7.70691C28.1125 7.4583 27.9628 7.23246 27.7731 7.04275C27.5834 6.85305 27.3575 6.70333 27.1089 6.60247C26.8603 6.50161 26.594 6.45166 26.3257 6.45557C26.0575 6.45948 25.7927 6.51718 25.5472 6.62524C25.3016 6.7333 25.0802 6.88954 24.8961 7.0847C24.5381 7.46424 24.3421 7.96838 24.3497 8.49009C24.3573 9.0118 24.5679 9.51001 24.9369 9.87896C25.3058 10.2479 25.804 10.4585 26.3257 10.4661C26.8475 10.4737 27.3516 10.2777 27.7311 9.9197V9.9197Z" fill="white"/>
</svg>
