<svg width="17" height="17" viewBox="0 0 17 17" fill="none" xmlns="http://www.w3.org/2000/svg">
<path fill-rule="evenodd" clip-rule="evenodd" d="M5.53266 1.09673C6.31466 1.06073 6.56399 1.05273 8.55599 1.05273C10.548 1.05273 10.7973 1.0614 11.5787 1.09673C12.36 1.13207 12.8933 1.25673 13.36 1.4374C13.8487 1.62207 14.292 1.91073 14.6587 2.28407C15.032 2.65007 15.32 3.09273 15.504 3.58207C15.6853 4.04873 15.8093 4.58207 15.8453 5.36207C15.8813 6.1454 15.8893 6.39473 15.8893 8.38607C15.8893 10.3781 15.8807 10.6274 15.8453 11.4094C15.81 12.1894 15.6853 12.7227 15.504 13.1894C15.32 13.6788 15.0315 14.1222 14.6587 14.4887C14.292 14.8621 13.8487 15.1501 13.36 15.3341C12.8933 15.5154 12.36 15.6394 11.58 15.6754C10.7973 15.7114 10.548 15.7194 8.55599 15.7194C6.56399 15.7194 6.31466 15.7107 5.53266 15.6754C4.75266 15.6401 4.21932 15.5154 3.75266 15.3341C3.26327 15.15 2.81987 14.8616 2.45332 14.4887C2.08024 14.1225 1.79153 13.6793 1.60732 13.1901C1.42666 12.7234 1.30266 12.1901 1.26666 11.4101C1.23066 10.6267 1.22266 10.3774 1.22266 8.38607C1.22266 6.39407 1.23132 6.14473 1.26666 5.3634C1.30199 4.58207 1.42666 4.04873 1.60732 3.58207C1.7918 3.09279 2.08074 2.64961 2.45399 2.2834C2.82002 1.9104 3.26297 1.6217 3.75199 1.4374C4.21866 1.25673 4.75199 1.13273 5.53199 1.09673H5.53266ZM11.5193 2.41673C10.746 2.3814 10.514 2.37407 8.55599 2.37407C6.59799 2.37407 6.36599 2.3814 5.59266 2.41673C4.87732 2.4494 4.48932 2.56873 4.23066 2.6694C3.88866 2.80273 3.64399 2.96073 3.38732 3.2174C3.14402 3.4541 2.95678 3.74226 2.83932 4.06073C2.73866 4.3194 2.61932 4.7074 2.58666 5.42273C2.55132 6.19607 2.54399 6.42807 2.54399 8.38607C2.54399 10.3441 2.55132 10.5761 2.58666 11.3494C2.61932 12.0647 2.73866 12.4527 2.83932 12.7114C2.95666 13.0294 3.14399 13.3181 3.38732 13.5547C3.62399 13.7981 3.91266 13.9854 4.23066 14.1027C4.48932 14.2034 4.87732 14.3227 5.59266 14.3554C6.36599 14.3907 6.59732 14.3981 8.55599 14.3981C10.5147 14.3981 10.746 14.3907 11.5193 14.3554C12.2347 14.3227 12.6227 14.2034 12.8813 14.1027C13.2233 13.9694 13.468 13.8114 13.7247 13.5547C13.968 13.3181 14.1553 13.0294 14.2727 12.7114C14.3733 12.4527 14.4927 12.0647 14.5253 11.3494C14.5607 10.5761 14.568 10.3441 14.568 8.38607C14.568 6.42807 14.5607 6.19607 14.5253 5.42273C14.4927 4.7074 14.3733 4.3194 14.2727 4.06073C14.1393 3.71873 13.9813 3.47407 13.7247 3.2174C13.4879 2.97412 13.1998 2.78687 12.8813 2.6694C12.6227 2.56873 12.2347 2.4494 11.5193 2.41673V2.41673ZM7.61932 10.6467C8.14243 10.8645 8.72491 10.8939 9.26728 10.7299C9.80964 10.5659 10.2783 10.2187 10.5931 9.74756C10.9079 9.27645 11.0494 8.71065 10.9934 8.1468C10.9373 7.58296 10.6873 7.05605 10.286 6.65607C10.0301 6.40039 9.7208 6.20461 9.38021 6.08283C9.03963 5.96106 8.67628 5.91631 8.31632 5.95181C7.95636 5.98732 7.60876 6.10219 7.29853 6.28815C6.98829 6.47412 6.72315 6.72656 6.52219 7.0273C6.32123 7.32804 6.18945 7.66959 6.13633 8.02738C6.08322 8.38516 6.11009 8.75026 6.21502 9.09641C6.31994 9.44256 6.50031 9.76114 6.74314 10.0292C6.98596 10.2973 7.28521 10.5082 7.61932 10.6467ZM5.89066 5.72073C6.24067 5.37072 6.6562 5.09307 7.11352 4.90364C7.57084 4.71421 8.06099 4.61672 8.55599 4.61672C9.05099 4.61672 9.54114 4.71421 9.99846 4.90364C10.4558 5.09307 10.8713 5.37072 11.2213 5.72073C11.5713 6.07075 11.849 6.48628 12.0384 6.9436C12.2278 7.40092 12.3253 7.89107 12.3253 8.38607C12.3253 8.88107 12.2278 9.37122 12.0384 9.82854C11.849 10.2859 11.5713 10.7014 11.2213 11.0514C10.5144 11.7583 9.55568 12.1554 8.55599 12.1554C7.5563 12.1554 6.59755 11.7583 5.89066 11.0514C5.18377 10.3445 4.78664 9.38576 4.78664 8.38607C4.78664 7.38637 5.18377 6.42762 5.89066 5.72073V5.72073ZM13.1613 5.17807C13.2481 5.09625 13.3175 4.99786 13.3655 4.88872C13.4136 4.77958 13.4392 4.66191 13.4409 4.54269C13.4427 4.42346 13.4205 4.3051 13.3756 4.19461C13.3308 4.08412 13.2643 3.98374 13.18 3.89943C13.0956 3.81511 12.9953 3.74857 12.8848 3.70375C12.7743 3.65892 12.6559 3.63672 12.5367 3.63846C12.4175 3.64019 12.2998 3.66584 12.1907 3.71387C12.0815 3.76189 11.9831 3.83133 11.9013 3.91807C11.7422 4.08675 11.6551 4.31082 11.6585 4.54269C11.6618 4.77456 11.7555 4.99599 11.9194 5.15996C12.0834 5.32394 12.3048 5.41755 12.5367 5.42093C12.7686 5.42431 12.9926 5.33719 13.1613 5.17807V5.17807Z" fill="#606060"/>
</svg>
