<svg width="34" height="34" viewBox="0 0 34 34" fill="none" xmlns="http://www.w3.org/2000/svg">
<path fill-rule="evenodd" clip-rule="evenodd" d="M9.82836 0.674928C11.5879 0.593928 12.1489 0.575928 16.6309 0.575928C21.1129 0.575928 21.6739 0.595428 23.4319 0.674928C25.1899 0.754428 26.3899 1.03493 27.4399 1.44143C28.5394 1.85693 29.5369 2.50643 30.3619 3.34643C31.2019 4.16993 31.8499 5.16593 32.2639 6.26693C32.6719 7.31693 32.9509 8.51693 33.0319 10.2719C33.1129 12.0344 33.1309 12.5954 33.1309 17.0759C33.1309 21.5579 33.1114 22.1189 33.0319 23.8784C32.9524 25.6334 32.6719 26.8334 32.2639 27.8834C31.8498 28.9846 31.2008 29.9822 30.3619 30.8069C29.5369 31.6469 28.5394 32.2949 27.4399 32.7089C26.3899 33.1169 25.1899 33.3959 23.4349 33.4769C21.6739 33.5579 21.1129 33.5759 16.6309 33.5759C12.1489 33.5759 11.5879 33.5564 9.82836 33.4769C8.07336 33.3974 6.87336 33.1169 5.82336 32.7089C4.72224 32.2949 3.72459 31.6458 2.89986 30.8069C2.06043 29.9829 1.41083 28.9858 0.996359 27.8849C0.589859 26.8349 0.310859 25.6349 0.229859 23.8799C0.148859 22.1174 0.130859 21.5564 0.130859 17.0759C0.130859 12.5939 0.150359 12.0329 0.229859 10.2749C0.309359 8.51693 0.589859 7.31693 0.996359 6.26693C1.41144 5.16605 2.06154 4.1689 2.90136 3.34493C3.72492 2.50568 4.72157 1.85609 5.82186 1.44143C6.87186 1.03493 8.07186 0.755928 9.82686 0.674928H9.82836ZM23.2984 3.64493C21.5584 3.56543 21.0364 3.54893 16.6309 3.54893C12.2254 3.54893 11.7034 3.56543 9.96336 3.64493C8.35386 3.71843 7.48086 3.98693 6.89886 4.21343C6.12936 4.51343 5.57886 4.86893 5.00136 5.44643C4.45393 5.97901 4.03263 6.62735 3.76836 7.34393C3.54186 7.92593 3.27336 8.79893 3.19986 10.4084C3.12036 12.1484 3.10386 12.6704 3.10386 17.0759C3.10386 21.4814 3.12036 22.0034 3.19986 23.7434C3.27336 25.3529 3.54186 26.2259 3.76836 26.8079C4.03236 27.5234 4.45386 28.1729 5.00136 28.7054C5.53386 29.2529 6.18336 29.6744 6.89886 29.9384C7.48086 30.1649 8.35386 30.4334 9.96336 30.5069C11.7034 30.5864 12.2239 30.6029 16.6309 30.6029C21.0379 30.6029 21.5584 30.5864 23.2984 30.5069C24.9079 30.4334 25.7809 30.1649 26.3629 29.9384C27.1324 29.6384 27.6829 29.2829 28.2604 28.7054C28.8079 28.1729 29.2294 27.5234 29.4934 26.8079C29.7199 26.2259 29.9884 25.3529 30.0619 23.7434C30.1414 22.0034 30.1579 21.4814 30.1579 17.0759C30.1579 12.6704 30.1414 12.1484 30.0619 10.4084C29.9884 8.79893 29.7199 7.92593 29.4934 7.34393C29.1934 6.57443 28.8379 6.02393 28.2604 5.44643C27.7278 4.89903 27.0794 4.47774 26.3629 4.21343C25.7809 3.98693 24.9079 3.71843 23.2984 3.64493V3.64493ZM14.5234 22.1624C15.7003 22.6524 17.0109 22.7185 18.2313 22.3495C19.4516 21.9805 20.5059 21.1993 21.2143 20.1393C21.9226 19.0793 22.2409 17.8062 22.1149 16.5376C21.9889 15.2689 21.4264 14.0834 20.5234 13.1834C19.9477 12.6081 19.2517 12.1676 18.4854 11.8936C17.719 11.6197 16.9015 11.519 16.0916 11.5989C15.2817 11.6787 14.4996 11.9372 13.8016 12.3556C13.1035 12.7741 12.507 13.342 12.0548 14.0187C11.6027 14.6954 11.3061 15.4639 11.1866 16.2689C11.0671 17.0739 11.1276 17.8954 11.3637 18.6742C11.5998 19.453 12.0056 20.1698 12.5519 20.773C13.0983 21.3762 13.7716 21.8507 14.5234 22.1624ZM10.6339 11.0789C11.4214 10.2914 12.3563 9.66668 13.3853 9.24047C14.4143 8.81426 15.5171 8.59489 16.6309 8.59489C17.7446 8.59489 18.8474 8.81426 19.8764 9.24047C20.9054 9.66668 21.8403 10.2914 22.6279 11.0789C23.4154 11.8665 24.0401 12.8014 24.4663 13.8304C24.8925 14.8593 25.1119 15.9622 25.1119 17.0759C25.1119 18.1897 24.8925 19.2925 24.4663 20.3215C24.0401 21.3504 23.4154 22.2854 22.6279 23.0729C21.0374 24.6634 18.8802 25.557 16.6309 25.557C14.3815 25.557 12.2244 24.6634 10.6339 23.0729C9.04336 21.4824 8.14982 19.3252 8.14982 17.0759C8.14982 14.8266 9.04336 12.6694 10.6339 11.0789V11.0789ZM26.9929 9.85793C27.188 9.67383 27.3443 9.45245 27.4523 9.20689C27.5604 8.96133 27.6181 8.69658 27.622 8.42832C27.6259 8.16006 27.5759 7.89375 27.4751 7.64514C27.3742 7.39654 27.2245 7.17069 27.0348 6.98099C26.8451 6.79128 26.6193 6.64156 26.3706 6.5407C26.122 6.43984 25.8557 6.38989 25.5875 6.3938C25.3192 6.39771 25.0545 6.45541 24.8089 6.56347C24.5633 6.67154 24.342 6.82777 24.1579 7.02293C23.7998 7.40247 23.6038 7.90661 23.6114 8.42832C23.619 8.95004 23.8296 9.44825 24.1986 9.81719C24.5675 10.1861 25.0658 10.3968 25.5875 10.4044C26.1092 10.412 26.6133 10.216 26.9929 9.85793V9.85793Z" fill="white"/>
</svg>
