<svg width="21" height="21" viewBox="0 0 21 21" fill="none" xmlns="http://www.w3.org/2000/svg">
<path d="M15.7129 14.4192L12.177 17.955C12.0224 18.1098 11.8388 18.2326 11.6367 18.3164C11.4346 18.4001 11.2179 18.4432 10.9991 18.4432C10.7803 18.4432 10.5637 18.4001 10.3616 18.3164C10.1595 18.2326 9.97583 18.1098 9.8212 17.955L6.28453 14.4192C5.35222 13.4868 4.71731 12.2989 4.46011 11.0057C4.2029 9.71252 4.33494 8.37209 4.83954 7.15394C5.34413 5.93578 6.19861 4.89461 7.29494 4.16209C8.39126 3.42956 9.68017 3.03857 10.9987 3.03857C12.3172 3.03857 13.6061 3.42956 14.7025 4.16209C15.7988 4.89461 16.6533 5.93578 17.1579 7.15394C17.6625 8.37209 17.7945 9.71252 17.5373 11.0057C17.2801 12.2989 16.6452 13.4868 15.7129 14.4192V14.4192Z" stroke="#161616" stroke-linecap="round" stroke-linejoin="round"/>
<path d="M13.498 9.70532C13.498 10.3684 13.2347 11.0042 12.7658 11.4731C12.297 11.9419 11.6611 12.2053 10.998 12.2053C10.335 12.2053 9.69912 11.9419 9.23028 11.4731C8.76144 11.0042 8.49805 10.3684 8.49805 9.70532C8.49805 9.04228 8.76144 8.4064 9.23028 7.93755C9.69912 7.46871 10.335 7.20532 10.998 7.20532C11.6611 7.20532 12.297 7.46871 12.7658 7.93755C13.2347 8.4064 13.498 9.04228 13.498 9.70532V9.70532Z" stroke="#161616" stroke-linecap="round" stroke-linejoin="round"/>
</svg>
