<svg width="14" height="12" viewBox="0 0 14 12" fill="none" xmlns="http://www.w3.org/2000/svg">
<path d="M0.556641 3.36108L5.81664 6.86775C6.03575 7.01394 6.29324 7.09195 6.55664 7.09195C6.82004 7.09195 7.07753 7.01394 7.29664 6.86775L12.5566 3.36108M1.88997 10.6944H11.2233C11.5769 10.6944 11.9161 10.5539 12.1661 10.3039C12.4162 10.0538 12.5566 9.71471 12.5566 9.36108V2.69442C12.5566 2.3408 12.4162 2.00166 12.1661 1.75161C11.9161 1.50156 11.5769 1.36108 11.2233 1.36108H1.88997C1.53635 1.36108 1.19721 1.50156 0.947165 1.75161C0.697116 2.00166 0.556641 2.3408 0.556641 2.69442V9.36108C0.556641 9.71471 0.697116 10.0538 0.947165 10.3039C1.19721 10.5539 1.53635 10.6944 1.88997 10.6944Z" stroke="#606060" stroke-linecap="round" stroke-linejoin="round"/>
</svg>
