<svg width="21" height="22" viewBox="0 0 21 22" fill="none" xmlns="http://www.w3.org/2000/svg">
<path d="M19.9926 1.78392C19.6732 1.46441 19.2939 1.21096 18.8765 1.03804C18.459 0.865124 18.0116 0.776123 17.5598 0.776123C17.108 0.776123 16.6606 0.865124 16.2431 1.03804C15.8257 1.21096 15.4464 1.46441 15.127 1.78392L2.18882 14.7221C1.80383 15.107 1.52385 15.5848 1.37773 16.1097L0.0241528 20.9439C-0.00712102 21.056 -0.00804031 21.1744 0.0214895 21.2869C0.0510193 21.3994 0.109936 21.5021 0.192204 21.5844C0.274471 21.6666 0.377131 21.7255 0.489665 21.7551C0.602199 21.7846 0.72056 21.7837 0.832622 21.7524L5.66594 20.3988C6.19086 20.252 6.66909 19.9723 7.05451 19.5869L19.9926 6.64874C20.6377 6.00357 21 5.12862 21 4.21633C21 3.30403 20.6377 2.42909 19.9926 1.78392ZM16.0553 2.71139C16.4544 2.31237 16.9957 2.08824 17.5601 2.08833C18.1245 2.08841 18.6657 2.31269 19.0647 2.71182C19.4638 3.11096 19.6879 3.65226 19.6878 4.21664C19.6877 4.78102 19.4634 5.32225 19.0643 5.72127L17.7169 7.06784L14.7078 4.05796L16.0553 2.71139ZM13.7804 4.9863L16.7903 7.99618L6.12617 18.6594C5.9003 18.8853 5.62006 19.0492 5.31245 19.1354L1.60172 20.174L2.6403 16.4641C2.72661 16.1566 2.89051 15.8764 3.11628 15.6504L13.7804 4.9863Z" fill="#161616"/>
</svg>
