<svg width="14" height="14" viewBox="0 0 14 14" fill="none" xmlns="http://www.w3.org/2000/svg">
<path d="M0.556641 2.41439C0.556641 2.06077 0.697116 1.72163 0.947165 1.47158C1.19721 1.22153 1.53635 1.08105 1.88997 1.08105H4.07664C4.2165 1.08116 4.35279 1.12525 4.46621 1.20709C4.57963 1.28892 4.66444 1.40436 4.70864 1.53705L5.70731 4.53239C5.75791 4.68461 5.75192 4.84998 5.69045 4.99815C5.62898 5.14632 5.51614 5.26736 5.37264 5.33905L3.86797 6.09239C4.60552 7.72475 5.91295 9.03218 7.54531 9.76972L8.29864 8.26505C8.37034 8.12155 8.49137 8.00872 8.63954 7.94724C8.78771 7.88577 8.95308 7.87979 9.10531 7.93039L12.1006 8.92906C12.2334 8.97329 12.349 9.0582 12.4308 9.17175C12.5126 9.28531 12.5567 9.42174 12.5566 9.56172V11.7477C12.5566 12.1013 12.4162 12.4405 12.1661 12.6905C11.9161 12.9406 11.5769 13.0811 11.2233 13.0811H10.5566C5.03397 13.0811 0.556641 8.60372 0.556641 3.08105V2.41439Z" stroke="#606060" stroke-linecap="round" stroke-linejoin="round"/>
</svg>
