<svg width="17" height="20" viewBox="0 0 17 20" fill="none" xmlns="http://www.w3.org/2000/svg">
<path d="M5.33459 1.35479C5.57612 1.35479 5.80777 1.45074 5.97856 1.62153C6.14935 1.79232 6.2453 2.02397 6.2453 2.2655V9.85479C6.2453 10.0158 6.30927 10.1702 6.42313 10.2841C6.53699 10.398 6.69142 10.4619 6.85244 10.4619C7.01347 10.4619 7.1679 10.398 7.28176 10.2841C7.39562 10.1702 7.45959 10.0158 7.45959 9.85479V6.779L7.56401 6.77415C7.94894 6.75957 8.33751 6.76443 8.55487 6.80693C8.71759 6.83972 8.91187 6.9235 9.09887 7.02793C9.19237 7.07893 9.28101 7.20643 9.28101 7.40922V9.85479C9.28101 10.0158 9.34498 10.1702 9.45884 10.2841C9.5727 10.398 9.72713 10.4619 9.88816 10.4619C10.0492 10.4619 10.2036 10.398 10.3175 10.2841C10.4313 10.1702 10.4953 10.0158 10.4953 9.85479V7.95443C10.5382 7.94992 10.5811 7.94587 10.624 7.94229C11.0077 7.91315 11.3332 7.93015 11.4837 7.99086C11.627 8.04672 11.848 8.24222 12.0739 8.513C12.1722 8.62957 12.256 8.74372 12.3167 8.8275V10.4619C12.3167 10.623 12.3807 10.7774 12.4946 10.8912C12.6084 11.0051 12.7628 11.0691 12.9239 11.0691C13.0849 11.0691 13.2393 11.0051 13.3532 10.8912C13.467 10.7774 13.531 10.623 13.531 10.4619V9.24765H13.9463C14.116 9.24764 14.2838 9.28321 14.4389 9.35206C14.594 9.42091 14.733 9.5215 14.8468 9.64736C14.9607 9.77321 15.0469 9.92153 15.0999 10.0828C15.1529 10.244 15.1715 10.4145 15.1545 10.5834L14.8254 13.8801C14.7829 14.3038 14.6518 14.7138 14.4405 15.0835L12.7466 18.0488C12.6935 18.1417 12.6168 18.219 12.5243 18.2727C12.4317 18.3264 12.3266 18.3548 12.2196 18.3548H4.46637C4.36638 18.3547 4.26796 18.33 4.17984 18.2828C4.09171 18.2355 4.01662 18.1672 3.96123 18.084L2.22116 15.4733C2.05959 15.2312 1.95841 14.9538 1.92608 14.6646L1.50716 10.8942C1.49022 10.7431 1.53061 10.5912 1.62032 10.4684C1.71003 10.3456 1.84255 10.261 1.99166 10.2312L3.20958 9.98836V11.0691C3.20958 11.2301 3.27355 11.3845 3.38741 11.4984C3.50127 11.6123 3.6557 11.6762 3.81673 11.6762C3.97775 11.6762 4.13218 11.6123 4.24604 11.4984C4.3599 11.3845 4.42387 11.2301 4.42387 11.0691V2.2655C4.42387 2.02397 4.51982 1.79232 4.69061 1.62153C4.8614 1.45074 5.09305 1.35479 5.33459 1.35479ZM7.45959 5.5635V2.2655C7.45959 1.70192 7.2357 1.16142 6.83719 0.762901C6.43867 0.364386 5.89817 0.140503 5.33459 0.140503C4.771 0.140503 4.2305 0.364386 3.83198 0.762901C3.43347 1.16142 3.20958 1.70192 3.20958 2.2655V8.74979L1.75244 9.04122C1.3058 9.13076 0.908926 9.38442 0.640088 9.75216C0.37125 10.1199 0.249967 10.575 0.300156 11.0278L0.719085 14.7994C0.77296 15.2815 0.941599 15.7437 1.21087 16.1472L2.95094 18.7579C3.11726 19.0074 3.3426 19.212 3.60696 19.3535C3.87132 19.495 4.16652 19.5691 4.46637 19.5691H12.2196C12.5406 19.569 12.856 19.484 13.1336 19.3228C13.4112 19.1616 13.6413 18.9298 13.8006 18.6511L15.4945 15.687C15.7907 15.1689 15.9744 14.5942 16.0337 14.0004L16.3627 10.7036C16.3965 10.366 16.3591 10.025 16.2531 9.70273C16.147 9.38044 15.9746 9.08395 15.7469 8.83238C15.5192 8.5808 15.2414 8.37972 14.9313 8.2421C14.6211 8.10448 14.2856 8.03337 13.9463 8.03336H13.2408C13.165 7.93057 13.086 7.83014 13.004 7.73222C12.7721 7.45414 12.3847 7.0425 11.9354 6.86279C11.4934 6.6855 10.9082 6.7025 10.5293 6.73165L10.369 6.74622C10.2397 6.41529 9.99932 6.13967 9.68901 5.96665C9.40965 5.80553 9.10752 5.68762 8.79287 5.61693C8.41644 5.54165 7.89551 5.5465 7.51787 5.56107L7.45959 5.5635Z" fill="white"/>
</svg>
