<svg width="46" height="46" viewBox="0 0 46 46" fill="none" xmlns="http://www.w3.org/2000/svg">
<path d="M42.914 32.4551C42.0635 32.0582 41.0052 31.5645 39.0652 31.5645C37.1253 31.5645 36.0668 32.0583 35.2165 32.4551C34.487 32.7955 33.9108 33.0645 32.6362 33.0645C31.3617 33.0645 30.7857 32.7956 30.0562 32.4551C29.2058 32.0583 28.1476 31.5645 26.2076 31.5645C24.2676 31.5645 23.2094 32.0584 22.3591 32.4551C21.6296 32.7955 21.0535 33.0645 19.7792 33.0645C18.5048 33.0645 17.9288 32.7956 17.1995 32.4551C16.3491 32.0583 15.2909 31.5645 13.351 31.5645C11.4111 31.5645 10.3528 32.0584 9.50248 32.4551C8.77302 32.7955 8.19692 33.0645 6.92258 33.0645C5.64823 33.0645 5.07214 32.7956 4.34267 32.4551C3.49236 32.0584 2.43402 31.5645 0.494141 31.5645V34.5645C1.76848 34.5645 2.34458 34.8333 3.07405 35.1738C3.92436 35.5706 4.9827 36.0645 6.92258 36.0645C8.86245 36.0645 9.9208 35.5705 10.7711 35.1738C11.5006 34.8334 12.0767 34.5645 13.351 34.5645C14.6254 34.5645 15.2014 34.8333 15.9307 35.1738C16.781 35.5706 17.8393 36.0645 19.7792 36.0645C21.719 36.0645 22.7774 35.5705 23.6277 35.1738C24.3572 34.8334 24.9334 34.5645 26.2076 34.5645C27.4819 34.5645 28.0581 34.8333 28.7876 35.1738C29.638 35.5706 30.6963 36.0645 32.6362 36.0645C34.5762 36.0645 35.6346 35.5706 36.485 35.1738C37.2145 34.8334 37.7908 34.5645 39.0652 34.5645C40.3397 34.5645 40.916 34.8333 41.6453 35.1738C42.4958 35.5707 43.5542 36.0645 45.4941 36.0645V33.0645C44.2197 33.0645 43.6434 32.7956 42.914 32.4551ZM39.0652 40.5645C37.1253 40.5645 36.0668 41.0583 35.2165 41.4551C34.487 41.7955 33.9108 42.0645 32.6362 42.0645C31.3617 42.0645 30.7857 41.7956 30.0562 41.4551C29.2058 41.0583 28.1476 40.5645 26.2076 40.5645C24.2676 40.5645 23.2094 41.0584 22.3591 41.4551C21.6296 41.7955 21.0535 42.0645 19.7792 42.0645C18.5048 42.0645 17.9288 41.7956 17.1995 41.4551C16.3491 41.0583 15.2909 40.5645 13.351 40.5645C11.4111 40.5645 10.3528 41.0584 9.50248 41.4551C8.77302 41.7955 8.19692 42.0645 6.92258 42.0645C5.64823 42.0645 5.07214 41.7956 4.34267 41.4551C3.49236 41.0584 2.43402 40.5645 0.494141 40.5645V43.5645C1.76848 43.5645 2.34458 43.8333 3.07405 44.1738C3.92436 44.5706 4.9827 45.0645 6.92258 45.0645C8.86245 45.0645 9.9208 44.5705 10.7711 44.1738C11.5006 43.8334 12.0767 43.5645 13.351 43.5645C14.6254 43.5645 15.2014 43.8333 15.9307 44.1738C16.781 44.5706 17.8393 45.0645 19.7792 45.0645C21.719 45.0645 22.7774 44.5705 23.6277 44.1738C24.3572 43.8334 24.9334 43.5645 26.2076 43.5645C27.4819 43.5645 28.0581 43.8333 28.7876 44.1738C29.638 44.5706 30.6963 45.0645 32.6362 45.0645C34.5762 45.0645 35.6346 44.5706 36.485 44.1738C37.2145 43.8334 37.7908 43.5645 39.0652 43.5645C40.3397 43.5645 40.916 43.8333 41.6453 44.1738C42.4958 44.5707 43.5542 45.0645 45.4941 45.0645V42.0645C44.2197 42.0645 43.6434 41.7956 42.914 41.4551C42.0635 41.0583 41.0052 40.5645 39.0652 40.5645V40.5645ZM22.2441 24.0645H35.7441V29.3145H38.7441V9.42802C38.743 8.51753 39.0192 7.62828 39.536 6.87867L44.2207 0.0644531H40.58L37.0638 5.17908C36.2025 6.42845 35.7422 7.91053 35.7441 9.42802V13.5645H22.2441V9.42802C22.243 8.51753 22.5192 7.62828 23.036 6.87867L27.7207 0.0644531H24.08L20.5638 5.17908C19.7025 6.42845 19.2422 7.91053 19.2441 9.42802V29.3145H22.2441V24.0645ZM22.2441 16.5645H35.7441V21.0645H22.2441V16.5645Z" fill="#1A8CCC"/>
</svg>
