<svg width="21" height="22" viewBox="0 0 21 22" fill="none" xmlns="http://www.w3.org/2000/svg">
<path d="M19.796 15.6219C19.3991 15.4367 18.9052 15.2062 17.9998 15.2062C17.0945 15.2062 16.6006 15.4367 16.2038 15.6219C15.8633 15.7807 15.5944 15.9062 14.9996 15.9062C14.4049 15.9062 14.1361 15.7808 13.7956 15.6219C13.3988 15.4367 12.9049 15.2062 11.9996 15.2062C11.0943 15.2062 10.6004 15.4367 10.2036 15.6219C9.86322 15.7807 9.59437 15.9062 8.99968 15.9062C8.40499 15.9062 8.13619 15.7808 7.79581 15.6219C7.399 15.4367 6.90515 15.2062 5.99988 15.2062C5.0946 15.2062 4.60071 15.4367 4.20389 15.6219C3.86347 15.7807 3.59463 15.9062 2.99994 15.9062C2.40524 15.9062 2.1364 15.7808 1.79598 15.6219C1.39917 15.4367 0.905275 15.2062 0 15.2062V16.6062C0.594694 16.6062 0.863538 16.7317 1.20396 16.8906C1.60077 17.0758 2.09466 17.3062 2.99994 17.3062C3.90521 17.3062 4.39911 17.0757 4.79592 16.8906C5.13634 16.7317 5.40518 16.6062 5.99988 16.6062C6.59457 16.6062 6.86337 16.7317 7.20374 16.8906C7.60056 17.0758 8.09441 17.3062 8.99968 17.3062C9.90496 17.3062 10.3988 17.0757 10.7957 16.8906C11.1361 16.7317 11.405 16.6062 11.9996 16.6062C12.5943 16.6062 12.8632 16.7317 13.2036 16.8906C13.6005 17.0758 14.0943 17.3062 14.9996 17.3062C15.905 17.3062 16.3989 17.0758 16.7958 16.8906C17.1362 16.7317 17.4051 16.6062 17.9998 16.6062C18.5946 16.6062 18.8635 16.7317 19.2039 16.8906C19.6008 17.0758 20.0947 17.3062 21 17.3062V15.9062C20.4053 15.9062 20.1363 15.7808 19.796 15.6219ZM17.9998 19.4062C17.0945 19.4062 16.6006 19.6367 16.2038 19.8218C15.8633 19.9807 15.5944 20.1062 14.9996 20.1062C14.4049 20.1062 14.1361 19.9808 13.7956 19.8218C13.3988 19.6367 12.9049 19.4062 11.9996 19.4062C11.0943 19.4062 10.6004 19.6367 10.2036 19.8218C9.86322 19.9807 9.59437 20.1062 8.99968 20.1062C8.40499 20.1062 8.13619 19.9808 7.79581 19.8218C7.399 19.6367 6.90515 19.4062 5.99988 19.4062C5.0946 19.4062 4.60071 19.6367 4.20389 19.8218C3.86347 19.9807 3.59463 20.1062 2.99994 20.1062C2.40524 20.1062 2.1364 19.9808 1.79598 19.8218C1.39917 19.6367 0.905275 19.4062 0 19.4062V20.8062C0.594694 20.8062 0.863538 20.9317 1.20396 21.0906C1.60077 21.2758 2.09466 21.5062 2.99994 21.5062C3.90521 21.5062 4.39911 21.2757 4.79592 21.0906C5.13634 20.9317 5.40518 20.8062 5.99988 20.8062C6.59457 20.8062 6.86337 20.9317 7.20374 21.0906C7.60056 21.2758 8.09441 21.5062 8.99968 21.5062C9.90496 21.5062 10.3988 21.2757 10.7957 21.0906C11.1361 20.9317 11.405 20.8062 11.9996 20.8062C12.5943 20.8062 12.8632 20.9317 13.2036 21.0906C13.6005 21.2758 14.0943 21.5062 14.9996 21.5062C15.905 21.5062 16.3989 21.2758 16.7958 21.0906C17.1362 20.9317 17.4051 20.8062 17.9998 20.8062C18.5946 20.8062 18.8635 20.9317 19.2039 21.0906C19.6008 21.2758 20.0947 21.5062 21 21.5062V20.1062C20.4053 20.1062 20.1363 19.9808 19.796 19.8218C19.3991 19.6367 18.9052 19.4062 17.9998 19.4062ZM10.15 11.7062H16.45V14.1562H17.85V4.87589C17.8495 4.45099 17.9783 4.03601 18.2195 3.68619L20.4057 0.506226H18.7068L17.0658 2.89305C16.6639 3.47609 16.4491 4.16773 16.45 4.87589V6.80623H10.15V4.87589C10.1495 4.45099 10.2783 4.03601 10.5195 3.68619L12.7057 0.506226H11.0068L9.36582 2.89305C8.96389 3.47609 8.74908 4.16773 8.75 4.87589V14.1562H10.15V11.7062ZM10.15 8.20623H16.45V10.3062H10.15V8.20623Z" fill="#161616"/>
</svg>
