<svg width="32" height="31" viewBox="0 0 32 31" fill="none" xmlns="http://www.w3.org/2000/svg">
<path d="M1.75 6.03589L6.5 7.61922M6.5 7.61922L1.75 21.8692C3.12069 22.8969 4.78765 23.4524 6.50079 23.4524C8.21393 23.4524 9.88089 22.8969 11.2516 21.8692M6.5 7.61922L11.25 21.8692M6.5 7.61922L16 4.45256M25.5 7.61922L30.25 6.03589M25.5 7.61922L20.75 21.8692C22.1207 22.8969 23.7876 23.4524 25.5008 23.4524C27.2139 23.4524 28.8809 22.8969 30.2516 21.8692M25.5 7.61922L30.25 21.8692M25.5 7.61922L16 4.45256M16 1.28589V4.45256M16 29.7859V4.45256M16 29.7859H11.25M16 29.7859H20.75" stroke="#1A8CCC" stroke-width="2" stroke-linecap="round" stroke-linejoin="round"/>
</svg>
