<svg width="40" height="39" viewBox="0 0 40 39" fill="none" xmlns="http://www.w3.org/2000/svg">
<path d="M38.5662 14.1161L26.6646 12.3864L21.3443 1.60051C21.199 1.30519 20.9599 1.06613 20.6646 0.920818C19.924 0.555193 19.024 0.859881 18.6537 1.60051L13.3334 12.3864L1.4318 14.1161C1.10368 14.163 0.803677 14.3177 0.573989 14.5521C0.29631 14.8375 0.143296 15.2214 0.148569 15.6196C0.153843 16.0178 0.316973 16.3976 0.602114 16.6755L9.21305 25.0708L7.17868 36.9255C7.13097 37.2013 7.16149 37.4849 7.26676 37.7442C7.37204 38.0035 7.54787 38.2281 7.77431 38.3926C8.00075 38.557 8.26874 38.6548 8.54789 38.6747C8.82705 38.6946 9.10619 38.6359 9.35368 38.5052L19.999 32.9083L30.6443 38.5052C30.9349 38.6599 31.2724 38.7114 31.5959 38.6552C32.4115 38.5146 32.9599 37.7411 32.8193 36.9255L30.7849 25.0708L39.3959 16.6755C39.6302 16.4458 39.7849 16.1458 39.8318 15.8177C39.9584 14.9974 39.3865 14.238 38.5662 14.1161V14.1161ZM27.1615 23.8896L28.8537 33.7474L19.999 29.0974L11.1443 33.7521L12.8365 23.8943L5.67399 16.9099L15.574 15.4708L19.999 6.50363L24.424 15.4708L34.324 16.9099L27.1615 23.8896Z" fill="#1A8CCC"/>
</svg>
